<svg id="Слой_1" data-name="Слой 1" xmlns="http://www.w3.org/2000/svg" viewBox="0 0 218.8 65.22"><defs><style>.cls-1{font-size:60px;font-family:MyriadPro-Bold, Myriad Pro;font-weight:700;}.cls-1,.cls-3{fill:#42b983;}.cls-2{letter-spacing:0em;}.cls-4{fill:#42a483;}</style></defs><title>logo</title><text class="cls-1" transform="translate(49.51 50.22)"><tspan class="cls-2">S</tspan><tspan x="32.16" y="0">hlink</tspan></text><path class="cls-3" d="M155.75,260.89c-1.64,1.64-3.25,3.31-4.92,4.92a5.92,5.92,0,0,1-.45.41c.32-.27-.23.15-.34.22a6.93,6.93,0,0,1-.76.41c.44-.2-.33.09-.49.13s-.83.17-.56.14-.45,0-.59,0-1-.09-.46,0a6.69,6.69,0,0,1-1-.23l-.4-.13c.05,0,.37.17.06,0a8.2,8.2,0,0,1-.76-.43l-.36-.24c.06,0,.28.23,0,0l-.54-.52c-.35-.35,0,.08-.26-.32-.16-.25-.3-.5-.44-.75-.25-.46,0,.16-.14-.34a9.81,9.81,0,0,1-.27-1.1c.09.51,0-.13,0-.32a7.87,7.87,0,0,1,0-.84c0,.51,0-.13.08-.31s.07-.27.11-.41.21-.57.1-.31.07-.14.08-.16l.21-.38c.08-.13.43-.65.35-.54l.39-.41c.64-.65,1.28-1.28,1.92-1.92l6.69-6.69,1-1,.17-.16c.07-.08.52-.48.37-.36s.16-.11.17-.12.32-.21.49-.3l.39-.2c.42-.21-.38.12.07,0s.63-.18.95-.26c0,0,.49-.08.16,0s.24,0,.3,0h.42c.08,0,.82.06.44,0s.13,0,.16,0l.55.13.4.13c.45.15-.35-.18.08,0a9.34,9.34,0,0,1,.87.5s.39.29.17.12.39.36.37.35a3,3,0,0,0,4.25-4.24,10.56,10.56,0,0,0-15.17.31l-7,7c-.81.82-1.64,1.63-2.44,2.45a10.73,10.73,0,0,0-3.15,7.63c.13,6.87,7.16,12.16,13.79,9.83,3.7-1.3,6.37-4.77,9.07-7.47a3,3,0,0,0-4.25-4.24Z" transform="translate(-137.14 -220.98)"/><path class="cls-4" d="M163.62,240.29c1.64-1.64,3.26-3.31,4.92-4.92.15-.14.29-.28.45-.41-.32.27.23-.16.34-.22a8,8,0,0,1,.76-.41c-.44.2.34-.09.49-.13s.83-.17.57-.14.45,0,.58,0,1,.09.46,0a6.11,6.11,0,0,1,1,.23l.4.13c-.05,0-.37-.17-.06,0s.52.27.76.42.25.16.36.25c-.05,0-.27-.23,0,0s.36.35.54.52c.35.35,0-.08.26.32.16.25.3.5.44.75.25.46,0-.16.14.34a9.81,9.81,0,0,1,.27,1.1c-.08-.51,0,.13,0,.32s0,.56,0,.84c0-.51,0,.13-.08.31L176,240c0,.05-.2.57-.09.31s-.08.14-.09.16-.13.26-.21.38-.43.65-.34.54-.28.29-.4.41c-.63.65-1.28,1.28-1.92,1.92l-6.69,6.69-1,1-.16.16c-.08.08-.53.48-.38.36s-.16.11-.17.12-.32.21-.49.3l-.38.2c-.43.21.37-.12-.08,0s-.63.18-.95.26c0,0-.49.08-.16,0s-.24,0-.3,0h-.42c-.07,0-.82-.06-.44,0s-.12,0-.16,0l-.55-.13-.4-.13c-.45-.15.35.18-.07,0a9.5,9.5,0,0,1-.88-.5s-.39-.29-.17-.12-.38-.36-.37-.35a3,3,0,0,0-4.24,4.24,10.55,10.55,0,0,0,15.16-.31l7-7c.82-.82,1.64-1.63,2.45-2.45a10.76,10.76,0,0,0,3.14-7.63c-.13-6.87-7.16-12.16-13.79-9.83-3.7,1.3-6.37,4.77-9.06,7.47a3,3,0,1,0,4.24,4.24Z" transform="translate(-137.14 -220.98)"/></svg>