<svg id="Слой_1" data-name="Слой 1" xmlns="http://www.w3.org/2000/svg" viewBox="0 0 303.41 380.52"><defs><style>.cls-1{fill:#cecece;}</style></defs><title>copy</title><path class="cls-1" d="M104.31,209.12v178c0,2.13,0,4.27,0,6.41.33,18.63,10.13,36.51,26.6,45.7,12.55,7,25.52,6.86,39.2,6.86H276.82c26,0,52.11.42,78.14,0a53.38,53.38,0,0,0,52.73-53.19c.05-7.37,0-14.74,0-22.11V123.34c0-1.6,0-3.21,0-4.82a53.81,53.81,0,0,0-24.94-44.73c-15.25-9.76-33.83-7.85-51.06-7.85H264.18a20.29,20.29,0,0,0-20,20c0,29.11.38,58.24,0,87.34v.33c0,.25,0,.47,0,.73v.7c-.15,1.81-.11,1.84.12.08l.2-1.3c-.1.66-.22,1.33-.37,2s-.3,1.3-.48,1.95a26.36,26.36,0,0,1-.8,2.53c-.14,0,2.05-3.86.18-.56-.42.76-.86,1.52-1.28,2.28l-.34.56c-1,1.41-.95,1.44.07.1l.79-1c-.4.51-.82,1-1.26,1.48s-.88,1-1.33,1.42c-.62.61-1.27,1.17-1.9,1.76-2.78,2.63.89-.91,1-.74s-4.84,2.76-5.09,2.91c-2.2,1.3,3.63-.89,1.1-.54a23.86,23.86,0,0,0-2.55.75c-.65.17-1.31.3-2,.45-3.61.83.92-.37,1.27-.17-.6-.34-2.38.1-3.3.11-1.68,0-3.37,0-5.05,0H124.31l20,20c0-10.73-.25-21.45.68-32.15.26-3-.87,5.12-.07.57.16-.89.31-1.79.47-2.68q.63-3.31,1.48-6.6t1.89-6.42c.38-1.15,1.26-5.79,2.29-6.25-1.17.52-1.76,3.77-.18.52.48-1,.92-2,1.41-3q1.47-2.94,3.12-5.79,1.32-2.26,2.75-4.47c.71-1.1,1.45-2.18,2.2-3.25l.76-1.06c1.28-1.72,1-1.41-.76.91.27-1.32,2.92-3.56,3.76-4.51,1.29-1.47,2.63-2.9,4-4.3q2.29-2.31,4.73-4.49c.65-.58,1.31-1.15,2-1.72s4.78-3,2.05-1.7.58-.38,1.13-.77c.72-.5,1.44-1,2.16-1.48,1.82-1.22,3.67-2.37,5.56-3.47s3.83-2.14,5.8-3.12c.78-.39,1.58-.77,2.38-1.14s1.6-.74,2.41-1.09l-2.34,1c.31-.75,5.45-2,6.25-2.28q3.18-1,6.43-1.89,2.61-.68,5.26-1.22c1.33-.27,2.68-.48,4-.73,4-.76-4.33.4.12,0,5.05-.47,10.09-.6,15.16-.6h33c10.46,0,20.48-9.2,20-20s-8.79-20-20-20c-26.15,0-53.42-2.13-78.37,7.2-39.18,14.65-70.33,48.24-78.73,89.75-3.1,15.36-2.77,30.68-2.77,46.23a20.3,20.3,0,0,0,20,20h97c7.24,0,14.34,0,21.46-1.82,18.81-4.79,34.29-20.23,39.4-38.91,2.07-7.58,2-15.24,2-23V85.94l-20,20h86.87c1.33,0,2.66,0,4,0,.49,0,1,0,1.47,0,3.26-.06-1.39.47-1.28-.29,0,0,1.83.36,2,.39s4.45,1.12,4.4,1.35c-.18.86-3.9-2.14-1.24-.39a21.71,21.71,0,0,0,2.76,1.66c2,.89-1.74-.94-1.47-1.22.05,0,1.69,1.48,1.92,1.7.62.6,1.17,1.24,1.78,1.85,1.61,1.61-.22.38,0,0l-.79-1q.57.8,1.05,1.62c.3.56.63,1.15,1,1.68,2.09,3.26-.79-1.15-.39-1.24a24.68,24.68,0,0,1,1,3.11c.18.64.3,1.29.48,1.93,1.05,3.83-.43-1.35-.14-1.33.08,0,.12,3,.12,2.75,0,.14,0,.28,0,.42.08,6.68,0,13.36,0,20V384.42c0,2.65,0,5.3,0,7.95,0,.37,0,.75,0,1.13-.09,5,0,.06.26.1a43.6,43.6,0,0,1-1.09,4.5c-.75,2.73-.61.57-.16.65-.25,0,1.21-2.07-.1,0-.43.68-.92,1.5-1.3,2.23-1.58,3,2.1-1.75.44-.45a38,38,0,0,0-3.13,3.21c-2.17,2.21.7-1.29,1-.74,0,0-1.5,1-1.61,1.05a16.55,16.55,0,0,0-2.26,1.26c-1.79,1.35,1.73-1.08,1.82-.69s-5.44,1.53-5.7,1.62c-2,.67,1.75-.36,2-.26a15.55,15.55,0,0,0-2.74.12h-.87c-3.12,0-6.24,0-9.36,0h-188l-.75,0c-5-.14,2.62,1-.72,0-.31-.09-5.1-1.22-5-1.5s3.61,2,1.82.69a20.4,20.4,0,0,0-2.81-1.6c-2.77-1.45,1.55.23.94.86,0,0-1.36-1.17-1.45-1.27a37.08,37.08,0,0,1-3.08-3.25c.63-.62,2.31,3.7.86.93-.38-.73-.87-1.55-1.3-2.23-1.31-2,.15,0-.1,0q1,2.42,0,0l-.4-1.25c-.27-.92-1.25-5.66-.7-2.55.57,3.27.09-.66.07-1.43,0-.19,0-.37,0-.56-.34-27.21,0-54.44,0-81.65V209.12c0-10.46-9.2-20.49-20-20s-20,8.79-20,20Z" transform="translate(-104.3 -65.73)"/></svg>